<?xml version="1.0" encoding="UTF-8" standalone="no"?>
<!-- Created with Inkscape (http://www.inkscape.org/) -->

<svg
   xmlns:dc="http://purl.org/dc/elements/1.1/"
   xmlns:cc="http://creativecommons.org/ns#"
   xmlns:rdf="http://www.w3.org/1999/02/22-rdf-syntax-ns#"
   xmlns:svg="http://www.w3.org/2000/svg"
   xmlns="http://www.w3.org/2000/svg"
   xmlns:sodipodi="http://sodipodi.sourceforge.net/DTD/sodipodi-0.dtd"
   xmlns:inkscape="http://www.inkscape.org/namespaces/inkscape"
   width="20mm"
   height="19.158108mm"
   viewBox="0 0 20 19.158108"
   version="1.1"
   id="svg1209"
   inkscape:version="0.92.4 (5da689c313, 2019-01-14)"
   sodipodi:docname="aQ_Logo_Vektor.svg">
  <defs
     id="defs1203" />
  <sodipodi:namedview
     id="base"
     pagecolor="#ffffff"
     bordercolor="#666666"
     borderopacity="1.0"
     inkscape:pageopacity="0.0"
     inkscape:pageshadow="2"
     inkscape:zoom="12.1751"
     inkscape:cx="37.795277"
     inkscape:cy="36.187124"
     inkscape:document-units="mm"
     inkscape:current-layer="g1846"
     showgrid="false"
     fit-margin-top="0"
     fit-margin-left="0"
     fit-margin-right="0"
     fit-margin-bottom="0"
     inkscape:window-width="1920"
     inkscape:window-height="1052"
     inkscape:window-x="3832"
     inkscape:window-y="-8"
     inkscape:window-maximized="1" />
  <metadata
     id="metadata1206">
    <rdf:RDF>
      <cc:Work
         rdf:about="">
        <dc:format>image/svg+xml</dc:format>
        <dc:type
           rdf:resource="http://purl.org/dc/dcmitype/StillImage" />
        <dc:title></dc:title>
      </cc:Work>
    </rdf:RDF>
  </metadata>
  <g
     inkscape:label="Layer 1"
     inkscape:groupmode="layer"
     id="layer1"
     transform="translate(-70.643463,-160.98721)">
    <g
       id="g1846"
       transform="matrix(0.29450741,0,0,0.29450741,49.83844,127.11293)">
      <g
         id="g865">
        <rect
           style="fill:#ffffff;fill-opacity:1;stroke:none;stroke-width:1.10362685;stroke-opacity:1"
           id="rect1817"
           width="67.910004"
           height="65.050995"
           x="70.643463"
           y="115.02013" />
        <g
           transform="matrix(1.0377402,0,0,1.0377402,-5.2290345,-6.9045285)"
           id="g848">
          <path
             id="path868"
             d="m 83.11085,175.16971 c 0,-0.47404 -0.16949,-0.87781 -0.50987,-1.21543 -0.34037,-0.33624 -0.7469,-0.50574 -1.22094,-0.50574 -0.46164,0 -0.86403,0.16812 -1.20854,0.50298 -0.34313,0.33487 -0.51539,0.72761 -0.51539,1.18098 0,0.48921 0.16812,0.90675 0.50299,1.24988 0.33624,0.34314 0.74276,0.51401 1.22094,0.51401 0.47404,0 0.88057,-0.17087 1.22094,-0.51125 0.34038,-0.34037 0.50987,-0.7469 0.50987,-1.21543 m -0.1502,-2.60725 h 1.09278 v 5.1828 h -1.09278 v -1.03077 c -0.53192,0.7841 -1.192,1.17547 -1.97886,1.17547 -0.68213,0 -1.26642,-0.26872 -1.75011,-0.80477 -0.48369,-0.53606 -0.72485,-1.1865 -0.72485,-1.95269 0,-0.72485 0.24391,-1.35737 0.73174,-1.90031 0.48782,-0.54157 1.06109,-0.81442 1.71703,-0.81442 0.40652,0 0.79237,0.11162 1.15618,0.33348 0.36518,0.22187 0.64767,0.51126 0.84887,0.86679 z m 0,0"
             style="fill:#005c98;fill-opacity:1;fill-rule:nonzero;stroke:none;stroke-width:0.35277778"
             inkscape:connector-curvature="0" />
          <path
             id="path870"
             d="m 85.8435,169.59141 h 1.09279 v 8.15385 H 85.8435 Z m 0,0"
             style="fill:#005c98;fill-opacity:1;fill-rule:nonzero;stroke:none;stroke-width:0.35277778"
             inkscape:connector-curvature="0" />
          <path
             id="path872"
             d="m 93.06029,175.1325 c 0,-0.4575 -0.17225,-0.85576 -0.51401,-1.19751 -0.34313,-0.34038 -0.74689,-0.51125 -1.20992,-0.51125 -0.47266,0 -0.88194,0.1695 -1.22645,0.50849 -0.34451,0.339 -0.51676,0.73863 -0.51676,1.20027 0,0.47267 0.1695,0.88333 0.51125,1.23059 0.34037,0.34727 0.74276,0.5209 1.20716,0.5209 0.47956,0 0.89159,-0.17088 1.23472,-0.51401 0.34176,-0.34451 0.51401,-0.75654 0.51401,-1.23748 m -3.31694,-2.56866 v 1.0418 c 0.52366,-0.791 1.19201,-1.18649 2.0078,-1.18649 0.66835,0 1.24437,0.26596 1.72806,0.80064 0.48232,0.5333 0.72347,1.17133 0.72347,1.91271 0,0.74966 -0.24391,1.39596 -0.73311,1.94028 -0.48921,0.54433 -1.0666,0.8158 -1.73082,0.8158 -0.38585,0 -0.75379,-0.1006 -1.10794,-0.30041 -0.35278,-0.20119 -0.64492,-0.49196 -0.87506,-0.87368 v 3.46164 h -1.09278 v -7.61229 z m 0,0"
             style="fill:#005c98;fill-opacity:1;fill-rule:nonzero;stroke:none;stroke-width:0.35277778"
             inkscape:connector-curvature="0" />
          <path
             id="path874"
             d="m 95.37126,169.59279 h 1.09278 v 3.81854 c 0.3018,-0.34726 0.58292,-0.59944 0.84474,-0.75654 0.26183,-0.15847 0.58153,-0.23564 0.95774,-0.23564 0.44097,0 0.81993,0.16812 1.13964,0.50436 0.32108,0.33762 0.48093,0.74138 0.48093,1.20992 v 3.61183 h -1.09278 v -3.30453 c 0,-0.3266 -0.0827,-0.58843 -0.24805,-0.7841 -0.16536,-0.19707 -0.38447,-0.29628 -0.65595,-0.29628 -0.39411,0 -0.73036,0.14883 -1.00872,0.44648 -0.27836,0.29628 -0.41755,0.65733 -0.41755,1.08038 v 2.85805 h -1.09278 z m 0,0"
             style="fill:#005c98;fill-opacity:1;fill-rule:nonzero;stroke:none;stroke-width:0.35277778"
             inkscape:connector-curvature="0" />
          <path
             id="path876"
             d="m 105.76029,175.16971 c 0,-0.47404 -0.1695,-0.87781 -0.50987,-1.21543 -0.339,-0.33624 -0.7469,-0.50574 -1.22094,-0.50574 -0.46165,0 -0.86403,0.16812 -1.20717,0.50298 -0.34451,0.33487 -0.51676,0.72761 -0.51676,1.18098 0,0.48921 0.16812,0.90675 0.50298,1.24988 0.33625,0.34314 0.74277,0.51401 1.22095,0.51401 0.47404,0 0.88194,-0.17087 1.22094,-0.51125 0.34037,-0.34037 0.50987,-0.7469 0.50987,-1.21543 m -0.1502,-2.60725 h 1.09278 v 5.1828 h -1.09278 v -1.03077 c -0.53193,0.7841 -1.19201,1.17547 -1.97887,1.17547 -0.68213,0 -1.26504,-0.26872 -1.74873,-0.80477 -0.48369,-0.53606 -0.72622,-1.1865 -0.72622,-1.95269 0,-0.72485 0.24391,-1.35737 0.73173,-1.90031 0.48783,-0.54157 1.06109,-0.81442 1.71842,-0.81442 0.40514,0 0.79099,0.11162 1.15479,0.33348 0.36518,0.22187 0.64768,0.51126 0.84888,0.86679 z m 0,0"
             style="fill:#005c98;fill-opacity:1;fill-rule:nonzero;stroke:none;stroke-width:0.35277778"
             inkscape:connector-curvature="0" />
          <path
             id="path878"
             d="m 113.8604,176.60425 -1.757,-1.87965 h 1.42765 l 1.23196,1.31741 c 0.67662,-0.64906 1.01562,-1.41662 1.01562,-2.30408 0,-0.8847 -0.31557,-1.62609 -0.94809,-2.22691 -0.63252,-0.60083 -1.418,-0.90124 -2.35645,-0.90124 -0.89159,0 -1.64951,0.30455 -2.27652,0.9164 -0.62562,0.61047 -0.93844,1.35048 -0.93844,2.22002 0,0.87092 0.31971,1.60954 0.96049,2.21588 0.63941,0.60634 1.42076,0.90951 2.34129,0.90951 0.38447,0 0.81718,-0.0882 1.29949,-0.26734 m 1.69361,0.26734 1.25401,1.36288 h -1.42626 l -0.70143,-0.75103 c -0.75792,0.35415 -1.47863,0.53192 -2.16214,0.53192 -1.22783,0 -2.27101,-0.4203 -3.12953,-1.26228 -0.85713,-0.84061 -1.28571,-1.86036 -1.28571,-3.05649 0,-1.1548 0.43271,-2.14423 1.2995,-2.96829 0.86678,-0.82407 1.91271,-1.23611 3.13503,-1.23611 1.20165,0 2.23656,0.40928 3.10334,1.22921 0.86679,0.81994 1.29949,1.79972 1.29949,2.9366 0,1.28985 -0.46164,2.36058 -1.3863,3.21359"
             style="fill:#000000;fill-opacity:1;fill-rule:nonzero;stroke:none;stroke-width:0.35277778"
             inkscape:connector-curvature="0" />
          <path
             id="path880"
             d="m 118.07169,172.56246 h 1.09278 v 2.92144 c 0,0.89986 0.3955,1.35048 1.18649,1.35048 0.35278,0 0.62976,-0.11989 0.83509,-0.36105 0.20533,-0.24115 0.30868,-0.5705 0.30868,-0.98943 v -2.92144 h 1.08038 v 3.09646 c 0,0.64905 -0.21221,1.18373 -0.63389,1.60265 -0.42306,0.41893 -0.96463,0.62839 -1.62195,0.62839 -0.66973,0 -1.2113,-0.20946 -1.62609,-0.62839 -0.41479,-0.41892 -0.62149,-0.966 -0.62149,-1.63986 z m 0,0"
             style="fill:#000000;fill-opacity:1;fill-rule:nonzero;stroke:none;stroke-width:0.35277778"
             inkscape:connector-curvature="0" />
          <path
             id="path882"
             d="m 124.76068,174.49171 h 3.16536 c -0.3514,-0.71244 -0.87092,-1.06797 -1.55719,-1.06797 -0.74965,0 -1.28571,0.35553 -1.60817,1.06797 m 4.30913,0.8723 h -4.42213 c 0.0965,0.53193 0.3142,0.92054 0.65595,1.16583 0.34175,0.24529 0.71382,0.36655 1.11483,0.36655 0.62012,0 1.13964,-0.25631 1.55856,-0.7717 l 0.79789,0.60358 c -0.59945,0.77308 -1.40147,1.16169 -2.40606,1.16169 -0.77032,0 -1.41524,-0.26458 -1.93476,-0.79237 -0.51952,-0.52641 -0.77859,-1.18236 -0.77859,-1.96647 0,-0.73173 0.26182,-1.36701 0.78823,-1.90582 0.52504,-0.53744 1.1672,-0.80753 1.92512,-0.80753 0.74552,0 1.38355,0.27423 1.91547,0.81993 0.53193,0.54708 0.79375,1.25539 0.78549,2.12631"
             style="fill:#000000;fill-opacity:1;fill-rule:nonzero;stroke:none;stroke-width:0.35277778"
             inkscape:connector-curvature="0" />
          <path
             id="path884"
             d="m 133.45335,173.17845 -0.72761,0.64078 c -0.18879,-0.13367 -0.35277,-0.23564 -0.49058,-0.30454 -0.1378,-0.0689 -0.30179,-0.10336 -0.49058,-0.10336 -0.44373,0 -0.66421,0.16261 -0.66421,0.48921 0,0.23564 0.28112,0.46302 0.84335,0.6835 0.56362,0.22049 0.96876,0.46302 1.21543,0.72623 0.24805,0.26459 0.3707,0.58153 0.3707,0.9536 0,0.43546 -0.17777,0.8158 -0.5333,1.13964 -0.35554,0.32384 -0.77446,0.48645 -1.25677,0.48645 -0.73174,0 -1.33257,-0.339 -1.80248,-1.01837 l 0.86128,-0.41341 c 0.30179,0.29214 0.6146,0.43959 0.9412,0.43959 0.22737,0 0.42443,-0.0634 0.59393,-0.18604 0.1695,-0.12264 0.25494,-0.26733 0.25494,-0.42994 0,-0.28939 -0.29766,-0.54984 -0.89159,-0.77997 -0.59532,-0.23013 -1.00735,-0.4644 -1.23473,-0.70005 -0.22875,-0.23702 -0.34313,-0.52916 -0.34313,-0.87643 0,-0.43132 0.16261,-0.78962 0.48783,-1.07762 0.32384,-0.28526 0.73174,-0.42857 1.22094,-0.42857 0.49058,0 1.03904,0.25218 1.64538,0.7593"
             style="fill:#000000;fill-opacity:1;fill-rule:nonzero;stroke:none;stroke-width:0.35277778"
             inkscape:connector-curvature="0" />
          <path
             id="path886"
             d="m 134.96092,171.05627 h 1.09278 v 1.50619 h 1.08039 v 0.99908 h -1.08039 v 4.18372 h -1.09278 v -4.18372 h -0.85989 v -1.01148 h 0.85989 z m 0,0"
             style="fill:#000000;fill-opacity:1;fill-rule:nonzero;stroke:none;stroke-width:0.35277778"
             inkscape:connector-curvature="0" />
          <path
             id="path888"
             d="m 130.82543,160.18217 -4.67844,-5.57692 c 2.20486,-2.60312 3.54018,-5.96691 3.54018,-9.63662 0,-8.23378 -6.69864,-14.93243 -14.93242,-14.93243 -3.08957,0 -5.95864,0.94809 -8.34265,2.56178 l 1.99127,3.55258 c 1.78869,-1.2926 3.98115,-2.05741 6.35138,-2.05741 5.99584,0 10.87548,4.87825 10.87548,10.87548 0,2.42121 -0.79651,4.66052 -2.14148,6.46989 l -2.52732,-3.0124 h -5.2834 l 4.83416,5.76158 c -1.67156,1.04731 -3.64353,1.65502 -5.75744,1.65502 -2.38263,0 -4.58749,-0.77307 -6.3817,-2.07808 l -1.99126,3.55396 c 2.38951,1.62609 5.27099,2.58107 8.37296,2.58107 3.10472,0 5.99171,-0.9536 8.3826,-2.58244 l 2.40468,2.86494 z m 0,0"
             style="fill:#000000;fill-opacity:1;fill-rule:nonzero;stroke:none;stroke-width:0.35277778"
             inkscape:connector-curvature="0" />
          <path
             id="path890"
             d="m 93.2105,154.16427 c -3.514,0 -6.4823,-4.17269 -6.4823,-9.11158 0,-4.93889 2.9683,-9.11297 6.4823,-9.11297 3.51399,0 6.48229,4.17408 6.48229,9.11297 0,4.93889 -2.9683,9.11158 -6.48229,9.11158 m 13.57092,-16.5778 -2.05328,-3.66144 c -1.13688,1.03353 -2.11529,2.23931 -2.8925,3.57463 -1.90859,-3.39273 -5.06154,-5.61689 -8.62514,-5.61689 -5.81119,0 -10.53924,5.90903 -10.53924,13.16992 0,7.26088 4.72805,13.16853 10.53924,13.16853 3.59392,0 6.77168,-2.25998 8.67475,-5.70232 0.76343,1.2926 1.7129,2.46255 2.81533,3.46852 l 2.05465,-3.66421 c -1.78318,-1.93752 -2.87596,-4.51996 -2.87596,-7.35458 0,-2.84841 1.10243,-5.44188 2.90215,-7.38216"
             style="fill:#005c98;fill-opacity:1;fill-rule:nonzero;stroke:none;stroke-width:0.35277778"
             inkscape:connector-curvature="0" />
          <path
             id="path892"
             d="m 77.58492,119.95999 h 60.96855 v -2.46945 H 77.58492 c -2.46531,0 -4.47173,2.00643 -4.47173,4.47174 v 55.67688 h 2.46944 v -55.67688 c 0,-1.10381 0.89848,-2.00229 2.00229,-2.00229"
             style="fill:#005c98;fill-opacity:1;fill-rule:nonzero;stroke:none;stroke-width:0.35277778"
             inkscape:connector-curvature="0" />
        </g>
      </g>
    </g>
  </g>
</svg>
